<?xml version="1.0" encoding="UTF-8"?>
<svg width="32px" height="32px" viewBox="0 0 32 32" version="1.1" xmlns="http://www.w3.org/2000/svg" xmlns:xlink="http://www.w3.org/1999/xlink">
    <title>Artboard</title>
    <g id="Artboard" stroke="none" stroke-width="1" fill="none" fill-rule="evenodd">
        <path d="M26,2 C27.1045695,2 28,2.8954305 28,4 L28,28 C28,29.1045695 27.1045695,30 26,30 L6,30 C4.8954305,30 4,29.1045695 4,28 L4,4 C4,2.8954305 4.8954305,2 6,2 L26,2 Z M25,4 L7,4 C6.44771525,4 6,4.44771525 6,5 L6,5 L6,23 C6,23.5522847 6.44771525,24 7,24 L7,24 L25,24 C25.5522847,24 26,23.5522847 26,23 L26,23 L26,5 C26,4.44771525 25.5522847,4 25,4 L25,4 Z" id="Combined-Shape" fill="#000000"></path>
    </g>
</svg>